<svg width="77" height="72" viewBox="0 0 77 72" fill="none" xmlns="http://www.w3.org/2000/svg">
  <path
    d="M7.672 56.448C6.62667 56.448 5.824 56.1493 5.264 55.552C4.704 54.9547 4.424 54.1333 4.424 53.088V19.432C4.424 18.3493 4.72267 17.528 5.32 16.968C5.91733 16.3707 6.73867 16.072 7.784 16.072C8.71733 16.072 9.44533 16.2587 9.968 16.632C10.528 16.968 11.032 17.5653 11.48 18.424L25.312 44.016H23.52L37.352 18.424C37.8 17.5653 38.2853 16.968 38.808 16.632C39.3307 16.2587 40.0587 16.072 40.992 16.072C42.0373 16.072 42.84 16.3707 43.4 16.968C43.96 17.528 44.24 18.3493 44.24 19.432V53.088C44.24 54.1333 43.96 54.9547 43.4 55.552C42.8773 56.1493 42.0747 56.448 40.992 56.448C39.9467 56.448 39.144 56.1493 38.584 55.552C38.024 54.9547 37.744 54.1333 37.744 53.088V27.16H38.976L27.216 48.608C26.8427 49.2427 26.4507 49.7093 26.04 50.008C25.6293 50.3067 25.0693 50.456 24.36 50.456C23.6507 50.456 23.072 50.3067 22.624 50.008C22.176 49.672 21.784 49.2053 21.448 48.608L9.576 27.104H10.92V53.088C10.92 54.1333 10.64 54.9547 10.08 55.552C9.55733 56.1493 8.75467 56.448 7.672 56.448Z"
    fill="#DAE3ED" />
  <rect x="51" y="16" width="26" height="40" rx="4" fill="#DAE3ED" />
  <rect x="54" y="19" width="20" height="34" fill="#1D1D1D" />
  <rect x="57" y="16" width="14" height="5" rx="2.5" fill="#DAE3ED" />
</svg>